<svg width="667" height="667" viewBox="0 0 667 667" fill="none" xmlns="http://www.w3.org/2000/svg">
<path d="M312.24 291.014C312.24 297.369 307.096 302.52 300.753 302.52C294.41 302.52 289.268 297.369 289.268 291.014C289.268 284.66 294.41 279.509 300.753 279.509C307.096 279.509 312.24 284.66 312.24 291.014Z" fill="white"/>
<path d="M223.222 98.2959C223.222 103.061 219.365 106.925 214.607 106.925C209.849 106.925 205.993 103.061 205.993 98.2959C205.993 93.5303 209.849 89.6667 214.607 89.6667C219.365 89.6667 223.222 93.5303 223.222 98.2959Z" fill="white"/>
<path d="M447.203 106.925C447.203 113.279 442.061 118.431 435.718 118.431C429.373 118.431 424.231 113.279 424.231 106.925C424.231 100.571 429.373 95.4196 435.718 95.4196C442.061 95.4196 447.203 100.571 447.203 106.925Z" fill="white"/>
<path d="M452.945 556.865C452.945 567.985 443.947 577 432.844 577C421.743 577 412.744 567.985 412.744 556.865C412.744 545.746 421.743 536.73 432.844 536.73C443.947 536.73 452.945 545.746 452.945 556.865Z" fill="white"/>
<path fill-rule="evenodd" clip-rule="evenodd" d="M141.522 480.167C126.175 459.086 133.468 424.532 157.723 385.598C179.825 350.079 216.049 310.923 262.015 274.996C263.333 272.732 264.706 270.542 266.154 268.408C280.35 247.383 300.54 233.131 323.347 229.902C325.407 229.586 327.504 229.382 329.62 229.271C368.72 206.649 406.615 191.21 439.016 184.065C480.324 174.916 512.726 179.24 527.293 199.245C529.65 202.492 531.469 206.037 532.786 209.878C540.154 231.535 531.227 262.247 509.645 296.096V296.115C487.451 330.984 451.876 369.175 406.967 404.267C401.604 408.48 396.111 412.618 390.488 416.719C370.966 430.934 351.258 443.497 331.921 454.279C295.066 474.841 259.51 488.907 228.909 495.551C191.608 503.642 161.657 500.71 145.716 485.029C144.194 483.526 142.784 481.911 141.522 480.167ZM561.699 189.632C560.121 185.642 558.08 181.912 555.556 178.461C533.38 147.989 479.192 146.004 413.369 167.753C367.328 182.97 315.59 209.767 265.077 246.548C219.24 279.932 180.882 316.825 152.824 352.622C105.706 412.674 87.483 469.682 111.107 502.12C112.201 503.642 113.389 505.071 114.651 506.444C138.998 533.055 191.98 533.501 255.557 512.067C301.023 496.739 351.926 470.22 401.604 434.033C447.496 400.611 485.873 363.682 513.95 327.848C555.964 274.235 574.967 223.054 561.699 189.632Z" fill="white"/>
<path fill-rule="evenodd" clip-rule="evenodd" d="M411.29 449.529C366.975 481.8 321.695 506.388 280.164 522.199C296.977 527.674 314.829 530.606 333.331 530.606C428.066 530.606 505.785 453.648 513.635 355.647C486.708 387.547 451.95 419.911 411.29 449.529ZM244.775 341.747C244.775 330.594 246.037 319.831 248.412 309.68C251.363 297.042 256.002 285.333 262.015 274.996C263.332 272.732 264.706 270.543 266.153 268.408C280.349 247.383 300.54 233.131 323.347 229.902C325.407 229.586 327.504 229.382 329.619 229.271C330.844 229.197 332.088 229.159 333.331 229.159C342.238 229.159 350.83 230.83 358.94 233.947C395.35 247.902 421.887 290.881 421.887 341.747C421.887 364.87 416.394 386.378 406.967 404.267C391.081 434.423 364.025 454.298 333.331 454.298C332.867 454.298 332.384 454.298 331.92 454.279C283.671 453.314 244.775 403.302 244.775 341.747ZM513.95 327.848C513.82 325.398 513.634 322.967 513.412 320.536C512.651 312.222 511.389 304.076 509.645 296.115V296.096C501.275 257.775 481.994 223.852 455.457 198.187C450.242 193.158 444.768 188.426 439.015 184.065C437.178 182.655 435.322 181.3 433.448 179.982C427.027 175.454 420.328 171.372 413.369 167.753C389.244 155.134 362.076 148.045 333.331 148.045C233.418 148.045 152.378 233.669 152.378 339.316C152.378 343.789 152.526 348.224 152.823 352.622C153.343 360.843 154.363 368.934 155.866 376.821C156.405 379.771 157.036 382.703 157.722 385.598C159.43 392.836 161.508 399.906 163.976 406.791C176.818 442.829 199.643 473.653 228.908 495.551C235.292 500.32 241.991 504.681 248.95 508.56C251.122 509.784 253.33 510.954 255.557 512.067C301.022 496.739 351.925 470.22 401.604 434.033C447.496 400.611 485.873 363.682 513.95 327.848Z" fill="white"/>
</svg>
